HIERARCHY
ROOT Hips
{
 OFFSET 0.000000 0.000000 0.000000
 CHANNELS 6 Xposition Yposition Zposition Yrotation Xrotation Zrotation
 JOINT Chest
 {
  OFFSET 0.000000 9.585900 0.002600
  CHANNELS 3 Yrotation Xrotation Zrotation
  JOINT Chest2
  {
   OFFSET 0.000000 9.601200 -0.005300
   CHANNELS 3 Yrotation Xrotation Zrotation
   JOINT Chest3
   {
    OFFSET 0.000000 9.561800 0.000000
    CHANNELS 3 Yrotation Xrotation Zrotation
    JOINT Chest4
    {
     OFFSET 0.000000 9.552100 0.000000
     CHANNELS 3 Yrotation Xrotation Zrotation
     JOINT Neck
     {
      OFFSET 0.000000 14.453000 0.000000
      CHANNELS 3 Yrotation Xrotation Zrotation
      JOINT Head
      {
       OFFSET 0.000000 8.936500 -0.011300
       CHANNELS 3 Yrotation Xrotation Zrotation
       End Site
       {
        OFFSET 0.000000 17.073600 -0.006000
       }
      }
     }
     JOINT RightCollar
     {
      OFFSET -2.921100 9.558500 0.000000
      CHANNELS 3 Yrotation Xrotation Zrotation
      JOINT RightShoulder
      {
       OFFSET -13.519700 0.000000 0.000000
       CHANNELS 3 Yrotation Xrotation Zrotation
       JOINT RightElbow
       {
        OFFSET 0.000000 -29.696600 0.000000
        CHANNELS 3 Yrotation Xrotation Zrotation
        JOINT RightWrist
        {
         OFFSET 0.000000 -24.004700 0.000000
         CHANNELS 3 Yrotation Xrotation Zrotation
         End Site
         {
          OFFSET 0.000000 -17.728500 0.000000
         }
        }
       }
      }
     }
     JOINT LeftCollar
     {
      OFFSET 2.921100 9.558500 0.000000
      CHANNELS 3 Yrotation Xrotation Zrotation
      JOINT LeftShoulder
      {
       OFFSET 13.519700 0.000000 0.000000
       CHANNELS 3 Yrotation Xrotation Zrotation
       JOINT LeftElbow
       {
        OFFSET 0.000000 -29.696600 0.000000
        CHANNELS 3 Yrotation Xrotation Zrotation
        JOINT LeftWrist
        {
         OFFSET 0.000000 -24.004700 0.000000
         CHANNELS 3 Yrotation Xrotation Zrotation
         End Site
         {
          OFFSET 0.000000 -17.728500 0.000000
         }
        }
       }
      }
     }
    }
   }
  }
 }
 JOINT RightHip
 {
  OFFSET -7.771700 -0.012900 -0.001300
  CHANNELS 3 Yrotation Xrotation Zrotation
  JOINT RightKnee
  {
   OFFSET 0.000000 -40.869800 0.001200
   CHANNELS 3 Yrotation Xrotation Zrotation
   JOINT RightAnkle
   {
    OFFSET 0.000000 -39.717900 0.002100
    CHANNELS 3 Yrotation Xrotation Zrotation
    JOINT RightToe
    {
     OFFSET 0.000000 -4.965400 11.033500
     CHANNELS 3 Yrotation Xrotation Zrotation
     End Site
     {
      OFFSET 0.000000 -1.423100 5.872300
     }
    }
   }
  }
 }
 JOINT LeftHip
 {
  OFFSET 7.771700 -0.012900 -0.001300
  CHANNELS 3 Yrotation Xrotation Zrotation
  JOINT LeftKnee
  {
   OFFSET 0.000000 -40.869800 0.001200
   CHANNELS 3 Yrotation Xrotation Zrotation
   JOINT LeftAnkle
   {
    OFFSET 0.000000 -39.717900 0.002100
    CHANNELS 3 Yrotation Xrotation Zrotation
    JOINT LeftToe
    {
     OFFSET 0.000000 -4.965400 11.033500
     CHANNELS 3 Yrotation Xrotation Zrotation
     End Site
     {
      OFFSET 0.000000 -1.423100 5.872300
     }
    }
   }
  }
 }
}
MOTION
Frames: 15
Frame Time: 0.008333
-120.805865 48.690034 19.884943 177.927884 -32.685644 -4.505177 0.986866 18.662467 1.841513 0.080168 2.161801 0.194371 0.113791 3.529945 0.283736 0.765928 16.229226 1.570176 1.792653 18.884975 0.427851 3.020026 -0.798481 0.193606 -2.559924 -1.728036 -3.057107 5.286949 -10.611703 -13.839577 -39.637349 -46.389714 93.547420 1.372756 0.188015 -14.472729 0.588249 -1.786448 2.817532 -7.653768 -4.635664 13.325649 75.149842 -67.185340 -114.405647 4.453238 6.572026 4.099437 -4.887063 -51.314903 -4.874241 -153.580381 82.315777 -141.141605 -29.299791 -7.146489 -1.095248 0.168472 -8.260367 -1.571745 -13.106875 -54.074513 18.465316 -73.351319 65.137497 -78.898150 30.763947 6.530381 16.653148 -0.033391 -0.050820 0.038222
-120.804422 48.687410 19.896303 177.871803 -32.647065 -4.431221 1.020642 18.664464 1.835349 0.084759 2.163012 0.194043 0.144164 3.573920 0.322435 0.822486 16.220747 1.563517 1.744375 18.832270 0.300704 3.072765 -0.835600 -0.008492 -2.609834 -1.806655 -3.072481 5.317402 -10.618142 -13.786594 -39.618022 -46.386487 93.510648 1.372508 0.304267 -14.496402 0.533839 -1.831335 2.807473 -7.574712 -4.587138 13.297637 75.146019 -67.141308 -114.410240 4.446594 6.523974 4.149840 -5.271227 -51.315335 -4.991257 -152.688263 82.244973 -140.227692 -29.348475 -7.087639 -1.209579 0.173926 -8.590774 -1.623611 -12.963693 -54.122333 18.408723 -73.291031 65.106841 -78.851760 30.774920 6.543722 16.698112 -0.043956 -0.050699 0.032717
-120.801420 48.684615 19.908184 177.814739 -32.604827 -4.349031 1.050822 18.666448 1.818549 0.089419 2.164908 0.193550 0.151818 3.576858 0.321743 0.872552 16.238000 1.573710 1.746098 18.794532 0.189959 3.139455 -0.879613 -0.205370 -2.599291 -1.863013 -3.072276 5.340907 -10.632047 -13.741607 -39.596895 -46.371903 93.456403 1.381355 0.373538 -14.493857 0.481474 -1.888628 2.791133 -7.475059 -4.498522 13.286685 75.164810 -67.102787 -114.424753 4.439395 6.469177 4.194019 -5.641954 -51.326797 -5.103878 -152.042410 82.199582 -139.555330 -29.407737 -7.026370 -1.333330 0.183811 -8.905194 -1.676542 -12.846171 -54.176569 18.342422 -73.220996 65.108457 -78.805316 30.802022 6.558621 16.744631 -0.083662 -0.064251 0.025126
-120.791128 48.682768 19.919966 177.752501 -32.566073 -4.291018 1.094890 18.673896 1.827883 0.091707 2.153759 0.185088 0.162157 3.593914 0.328902 0.906904 16.244250 1.573271 1.772086 18.766383 0.090824 3.219037 -0.928822 -0.396004 -2.555510 -1.902973 -3.060203 5.362092 -10.651774 -13.704885 -39.578995 -46.351295 93.389984 1.401881 0.415524 -14.473859 0.528266 -1.840292 2.830838 -7.467608 -4.506020 13.241537 75.208751 -67.070447 -114.451728 4.431545 6.416486 4.237385 -6.029834 -51.337865 -5.158069 -151.593944 82.180121 -139.075464 -29.470789 -6.953381 -1.462071 0.193711 -9.211498 -1.733942 -12.711019 -54.218374 18.319882 -73.182096 65.071610 -78.761211 30.791420 6.563389 16.771338 -0.075673 -0.051787 0.020698
-120.775101 48.682110 19.931218 177.684555 -32.532205 -4.248905 1.151355 18.687171 1.856962 0.089714 2.115640 0.159280 0.173111 3.623664 0.344224 0.944269 16.265097 1.581093 1.805160 18.736821 -0.003046 3.309909 -0.980481 -0.579304 -2.532233 -1.946560 -3.052722 5.413661 -10.669310 -13.663729 -39.561082 -46.335830 93.318006 1.427259 0.443830 -14.436923 0.538777 -1.817796 2.851538 -7.429514 -4.477478 13.216479 75.266365 -67.046589 -114.488163 4.423585 6.374344 4.274717 -6.418968 -51.349042 -5.170116 -151.303544 82.182601 -138.750698 -29.534211 -6.865664 -1.594353 0.204106 -9.511251 -1.794470 -12.573530 -54.233457 18.349038 -73.134551 64.988312 -78.699475 30.746561 6.551987 16.781711 -0.011882 -0.007784 0.021395
-120.762021 48.681216 19.942977 177.622469 -32.489309 -4.179355 1.191808 18.694628 1.855951 0.095668 2.116182 0.154122 0.166430 3.584230 0.320252 0.990229 16.315294 1.604066 1.845013 18.707030 -0.090802 3.411214 -1.032491 -0.753515 -2.506904 -1.988823 -3.043090 5.468863 -10.685194 -13.626385 -39.568300 -46.348829 93.221299 1.436799 0.476901 -14.352809 0.537259 -1.811472 2.863306 -7.376954 -4.430292 13.201250 75.322785 -67.032913 -114.524140 4.421496 6.346486 4.303795 -6.762683 -51.381252 -5.218562 -151.119782 82.195580 -138.535135 -29.594673 -6.773443 -1.729661 0.218298 -9.796300 -1.853236 -12.474952 -54.278497 18.318495 -73.100050 64.970092 -78.669450 30.761342 6.552548 16.799333 -0.015734 -0.002773 0.012901
-120.749988 48.680114 19.955939 177.576213 -32.431929 -4.102023 1.214861 18.693478 1.841116 0.103553 2.158831 0.180515 0.163476 3.541453 0.289790 1.016229 16.326077 1.595081 1.890688 18.677183 -0.171803 3.521234 -1.084504 -0.917235 -2.479899 -2.029429 -3.029184 5.524656 -10.700767 -13.594424 -39.582750 -46.366163 93.130431 1.449170 0.511416 -14.275375 0.535307 -1.805480 2.875604 -7.324622 -4.387902 13.189699 75.371538 -67.023567 -114.552870 4.424112 6.332751 4.328206 -7.093089 -51.434974 -5.278117 -150.966072 82.209386 -138.353011 -29.643602 -6.684191 -1.866831 0.232285 -10.065298 -1.909384 -12.376537 -54.339376 18.268300 -73.016401 64.958570 -78.599865 30.776222 6.574234 16.834099 -0.036814 -0.010342 0.003444
-120.732998 48.682827 19.965138 177.551057 -32.397443 -4.057501 1.234305 18.720723 1.852135 0.108516 2.175348 0.188191 0.177399 3.576056 0.303944 1.019875 16.284567 1.556694 1.939519 18.647992 -0.246273 3.635088 -1.135069 -1.070114 -2.491817 -2.086601 -3.024895 5.614210 -10.702175 -13.551597 -39.518472 -46.357041 93.085232 1.484797 0.498999 -14.311690 0.507790 -1.839587 2.876299 -7.255759 -4.310147 13.188740 75.403775 -67.010717 -114.568465 4.428574 6.330672 4.351551 -7.453143 -51.462652 -5.296872 -150.809487 82.221367 -138.168933 -29.681813 -6.595212 -2.002587 0.244340 -10.327135 -1.963621 -12.318641 -54.359945 18.264291 -72.927544 64.923033 -78.523756 30.771604 6.589232 16.855077 -0.037206 -0.006020 -0.000309
-120.714611 48.687950 19.972366 177.523203 -32.371754 -4.015423 1.258310 18.757852 1.866501 0.111979 2.177158 0.186629 0.188939 3.596021 0.310788 1.036339 16.273130 1.537497 1.989714 18.620467 -0.315088 3.749661 -1.182475 -1.213122 -2.506805 -2.144549 -3.019313 5.702167 -10.700971 -13.514094 -39.473984 -46.351283 93.019731 1.501678 0.506402 -14.319834 0.504306 -1.810550 2.897674 -7.212612 -4.306407 13.177482 75.410073 -66.988377 -114.565493 4.434213 6.337066 4.371440 -7.799016 -51.483874 -5.305745 -150.655502 82.229432 -137.989994 -29.710434 -6.513851 -2.129928 0.252727 -10.572599 -2.018615 -12.268304 -54.371993 18.264686 -72.880431 64.885568 -78.484617 30.768686 6.590709 16.860246 -0.025176 0.003253 -0.002809
-120.702342 48.689978 19.985110 177.441550 -32.299999 -3.908701 1.307146 18.744044 1.838434 0.115956 2.180075 0.185284 0.195444 3.600670 0.308614 1.064638 16.281747 1.529684 2.041185 18.595121 -0.378298 3.864838 -1.225821 -1.346175 -2.487124 -2.184572 -2.999992 5.756374 -10.711494 -13.499313 -39.444895 -46.344696 92.951047 1.500810 0.530817 -14.316910 0.498988 -1.778938 2.919305 -7.169776 -4.314049 13.167598 75.390584 -66.957015 -114.543958 4.439494 6.350576 4.381188 -8.050005 -51.568274 -5.358877 -150.501153 82.228791 -137.816856 -29.723882 -6.454376 -2.245982 0.252479 -10.782774 -2.075899 -12.153275 -54.434656 18.227140 -72.820016 64.851595 -78.437394 30.759158 6.591793 16.861811 -0.010078 0.013740 -0.002526
-120.687650 48.696344 19.992799 177.376537 -32.257287 -3.826251 1.344634 18.755499 1.824145 0.120279 2.184333 0.184071 0.202513 3.607290 0.306625 1.095293 16.294239 1.522657 2.093498 18.573253 -0.435259 3.979479 -1.262749 -1.467966 -2.426404 -2.177978 -2.948835 5.772844 -10.759674 -13.528547 -39.419214 -46.331798 92.889023 1.490682 0.561613 -14.320368 0.481369 -1.768964 2.934735 -7.156401 -4.356831 13.155341 75.237067 -66.915903 -114.357615 4.446061 6.368432 4.383151 -8.312126 -51.621541 -5.388579 -150.323215 82.220682 -137.625399 -29.732960 -6.393085 -2.352420 0.250319 -10.988163 -2.129289 -12.067241 -54.463762 18.203768 -72.750327 64.829332 -78.379567 30.748757 6.600996 16.862958 0.007475 0.016546 -0.002113
-120.669740 48.705700 19.997230 177.356013 -32.229485 -3.790333 1.351863 18.779997 1.833219 0.124625 2.189389 0.183105 0.202835 3.582886 0.287892 1.138095 16.341224 1.535647 2.145542 18.556025 -0.486788 4.091828 -1.291203 -1.579656 -2.401977 -2.194640 -2.919662 5.816977 -10.784521 -13.537755 -39.395517 -46.314466 92.833146 1.477954 0.598019 -14.329884 0.447332 -1.805179 2.933434 -7.086081 -4.277580 13.161067 75.234454 -66.886635 -114.374592 4.455297 6.383637 4.380551 -8.617889 -51.653171 -5.382021 -150.143668 82.210189 -137.434431 -29.745932 -6.326611 -2.453280 0.248983 -11.192582 -2.175555 -12.049566 -54.470491 18.209306 -72.664174 64.808119 -78.292296 30.744875 6.624726 16.860966 0.007671 0.015225 -0.011781
-120.653395 48.716873 19.998780 177.325896 -32.213698 -3.745105 1.366539 18.788855 1.820131 0.129077 2.219292 0.200514 0.202896 3.560574 0.269289 1.153403 16.348369 1.534013 2.224505 18.582196 -0.520728 4.202451 -1.310592 -1.683228 -2.372508 -2.184895 -2.895295 5.871546 -10.791748 -13.536820 -39.373783 -46.294798 92.781979 1.468178 0.639987 -14.345838 0.436546 -1.801722 2.939520 -7.025952 -4.198473 13.164997 75.219330 -66.864460 -114.374597 4.466230 6.394273 4.370508 -8.886547 -51.675103 -5.384324 -150.002268 82.203178 -137.282429 -29.766461 -6.263789 -2.553942 0.249157 -11.384339 -2.212013 -12.025790 -54.465179 18.209207 -72.599175 64.787175 -78.245466 30.749214 6.629588 16.867426 0.007521 0.013997 -0.019856
-120.640430 48.727539 20.000117 177.277658 -32.189702 -3.676880 1.392012 18.788365 1.792732 0.131214 2.247552 0.218235 0.218844 3.616057 0.295013 1.172419 16.335966 1.514478 2.263410 18.554689 -0.569763 4.313137 -1.321857 -1.778912 -2.377746 -2.236957 -2.888665 5.924842 -10.788952 -13.535937 -39.352973 -46.275230 92.731665 1.463557 0.684605 -14.362465 0.408529 -1.767367 2.969791 -6.992847 -4.238834 13.129824 75.137325 -66.845380 -114.291144 4.478646 6.405426 4.358600 -9.104871 -51.709779 -5.406871 -149.906000 82.201585 -137.175984 -29.790220 -6.208904 -2.658911 0.248344 -11.557933 -2.236719 -12.009497 -54.457581 18.214053 -72.494663 64.771447 -78.182614 30.752659 6.629086 16.872714 0.004469 0.016211 -0.025408
-120.627822 48.736259 20.003363 177.205556 -32.143584 -3.601887 1.437502 18.788249 1.788830 0.131610 2.224854 0.200015 0.225557 3.663750 0.321626 1.196328 16.355229 1.513420 2.304160 18.531621 -0.615125 4.424614 -1.325829 -1.866514 -2.396292 -2.309913 -2.902804 5.988706 -10.761021 -13.515709 -39.331588 -46.257984 92.682853 1.461715 0.732149 -14.374571 0.377076 -1.774491 2.984639 -6.973084 -4.281692 13.095921 74.938909 -66.821569 -114.078037 4.492674 6.418681 4.353720 -9.294430 -51.767271 -5.416336 -149.833723 82.204698 -137.091547 -29.808935 -6.160879 -2.769426 0.241245 -11.714400 -2.250876 -11.943459 -54.499105 18.190531 -72.485589 64.769461 -78.147502 30.726629 6.653830 16.828805 0.034013 0.008031 -0.019564
